# xmcd
#
# Track frame offsets:
#	150
#	11172
#	25315
#	36230
#	51522
#	64345
#	80100
#	93305
#	103500
#	116380
#	129095
#	140830
#
# Disc length: 2123 seconds
#
# Revision: 0
# Processed by: cddbd v1.5.2PL0 Copyright (c) Steve Scherf et al.
# Submitted via: audiograbber 1.83.01
#
DISCID=a708490c
DTITLE=TRUCKS aus dem Zillertal  - Freunde wie wir
DYEAR=1900
DGENRE=
TTITLE0=Freunde wie wir 
TTITLE1=Was¥n Cowboy alles braucht
TTITLE2=Back to Nature 
TTITLE3=Eine Herde weiﬂer Pferde 
TTITLE4=Cowboy-Boots und Country-Girls 
TTITLE5=Nur mit Dir 
TTITLE6=Ghost Rider in the Sky 
TTITLE7=Baby please don¥t shout at me 
TTITLE8=Sie liebt nur Kris Kristofferson
TTITLE9=Exactly like you 
TTITLE10=Halt die Luft an 
TTITLE11=The Bug
EXTD=
EXTT0=
EXTT1=
EXTT2=
EXTT3=
EXTT4=
EXTT5=
EXTT6=
EXTT7=
EXTT8=
EXTT9=
EXTT10=
EXTT11=
PLAYORDER=
